# xmcd
#
# Track frame offsets:
#	150
#	13496
#	32501
#	43368
#	61551
#	72278
#	87252
#	105481
#	122994
#	135457
#	153841
#	169639
#	184717
#	197806
#	208969
#	224230
#	237578
#	252166
#
# Disc length: 3617 seconds
#
# Revision: 0
# Processed by: cddbd v1.5.2PL0 Copyright (c) Steve Scherf et al.
# Submitted via: EasyCDDAExtractor 16.0.6.1
#
DISCID=0b0e1f12
DTITLE=Συλλογικός δίσκος - Στου τραγουδιού την όχθη 1-3
DYEAR=2011
DGENRE=Έντεχνη λαϊκή
TTITLE0=Θηβαίος Χρήστος-Συνήθεις Ύποπτοι - Κόκκινο θολό φεγγάρι [Χρήστος Θηβαί
TTITLE0=ος]
TTITLE1=Παπάζογλου Νίκος - Στη ρωγμή του χρόνου [Ν. Ξυδάκης-Μ. Ρασούλης]
TTITLE2=Σαββόπουλος Διονύσης - Τι έπαιξα στο Λαύριο [Δ. Σαββόπουλος]
TTITLE3=Σιδηρόπουλος Παύλος - Να μ' αγαπάς [Ανδρέας Θωμόπουλος]
TTITLE4=Αρβανιτάκη Ελευθερία - Το Καστριτσιάνικο ποτάμι [Ν. Ξυδάκης-Θ. Γκόνης]
TTITLE5=Στόκας Μπάμπης - Μη γυρίσεις [Τ. Μπουρμάς-Χ. κ Π. Κατσιμίχας/Β. Μπετίν
TTITLE5=ι]
TTITLE6=Ζαχαριουδάκης Δημήτρης-Χαΐνηδες - Ο Σαρακηνός κουρσάρος, ο Αλή [Δημ. Α
TTITLE6=ποστολάκης]
TTITLE7=Περίδης Ορφέας - Ο Ρομπέν των καμένων δασών [Ορφέας Περίδης]
TTITLE8=Χειμερινοί Κολυμβητές - Δεν είναι ίδιες όλες οι γυναίκες [Σταύρος Καρα
TTITLE8=μανιώλας]
TTITLE9=Μπάσης Δημήτρης - Έχω έναν καφενέ [Μ. Λοΐζος-Λ. Παπαδόπουλος]
TTITLE10=Μουτσάτσου Αναστασία - Το λιμάνι [Γιώργος Ανδρέου]
TTITLE11=Locomondo -  Φραγκοσυριανή [Μ. Βαμβακάρης, διασκ. Μ.Κούμαρης]
TTITLE12=Μακεδόνας Κώστας - Το ποδήλατο [Χ. Νικολόπουλος-Ά. Δαβαράκης]
TTITLE13=Λιδάκης Μανώλης - Λόγια κι άλλα λόγια [Νίκος Ξυδάκης]
TTITLE14=Γερμανός Βαγγέλης-Γλυκερία - Ο απόκληρος [Βαγγέλης Γερμανός]
TTITLE15=Ζιώγαλας Νίκος-Φάμελλος Μανώλης-Ποδηλάτες - Βασιλική [παραδ., διασκ. 
TTITLE15=Νίκος Ζιώγαλας]
TTITLE16=Ξυδάκης Νίκος - Άννα Καρένινα [Ν. Ξυδάκης-Θ. Γκόνης]
TTITLE17=Νταντωνάκη Φλέρυ - Άνοιξε γιατί δεν αντέχω [Γ. Παπαϊωάννου-Χ. Βασιλει
TTITLE17=άδης]
EXTD=
EXTT0=
EXTT1=
EXTT2=
EXTT3=
EXTT4=
EXTT5=
EXTT6=
EXTT7=
EXTT8=
EXTT9=
EXTT10=
EXTT11=
EXTT12=
EXTT13=
EXTT14=
EXTT15=
EXTT16=
EXTT17=
PLAYORDER=
